# Blender 3.4.1
# www.blender.org
mtllib light.mtl
o Cylinder
v -1.654215 2.353588 -0.061376
v -1.654127 2.443284 -0.061376
v -1.636825 2.352320 -0.059659
v -1.636691 2.443284 -0.059659
v -1.620104 2.351101 -0.054573
v -1.619926 2.443284 -0.054573
v -1.604694 2.349977 -0.046314
v -1.604474 2.443284 -0.046314
v -1.591187 2.348993 -0.035200
v -1.590931 2.443284 -0.035200
v -1.580102 2.348184 -0.021657
v -1.579817 2.443284 -0.021657
v -1.571865 2.347584 -0.006206
v -1.571558 2.443284 -0.006206
v -1.566792 2.347214 0.010560
v -1.566472 2.443284 0.010560
v -1.565080 2.347089 0.027995
v -1.564755 2.443284 0.027995
v -1.566792 2.347214 0.045431
v -1.566472 2.443284 0.045431
v -1.571865 2.347584 0.062196
v -1.571558 2.443284 0.062196
v -1.580102 2.348184 0.077648
v -1.579817 2.443284 0.077648
v -1.591187 2.348993 0.091191
v -1.590931 2.443284 0.091191
v -1.604694 2.349977 0.102305
v -1.604474 2.443284 0.102305
v -1.620104 2.351101 0.110564
v -1.619926 2.443284 0.110564
v -1.636825 2.352320 0.115650
v -1.636691 2.443284 0.115650
v -1.654215 2.353588 0.117367
v -1.654127 2.443284 0.117367
v -1.671604 2.354855 0.115650
v -1.671562 2.443284 0.115650
v -1.688325 2.356074 0.110564
v -1.688328 2.443284 0.110564
v -1.703735 2.357198 0.102305
v -1.703779 2.443284 0.102305
v -1.717243 2.358182 0.091191
v -1.717322 2.443284 0.091191
v -1.728328 2.358991 0.077648
v -1.728436 2.443284 0.077648
v -1.736565 2.359591 0.062196
v -1.736695 2.443284 0.062196
v -1.741637 2.359961 0.045431
v -1.741781 2.443284 0.045431
v -1.743350 2.360086 0.027995
v -1.743498 2.443284 0.027995
v -1.741637 2.359961 0.010560
v -1.741781 2.443284 0.010560
v -1.736565 2.359591 -0.006206
v -1.736695 2.443284 -0.006206
v -1.728328 2.358991 -0.021657
v -1.728436 2.443284 -0.021657
v -1.717243 2.358182 -0.035200
v -1.717322 2.443284 -0.035200
v -1.703735 2.357198 -0.046314
v -1.703779 2.443284 -0.046314
v -1.688325 2.356074 -0.054573
v -1.688328 2.443284 -0.054573
v -1.671604 2.354855 -0.059659
v -1.671562 2.443284 -0.059659
v -1.654267 2.352871 -0.032373
v -1.642521 2.352015 -0.031213
v -1.631226 2.351191 -0.027778
v -1.620817 2.350432 -0.022199
v -1.611693 2.349767 -0.014692
v -1.604205 2.349221 -0.005544
v -1.598642 2.348816 0.004893
v -1.595215 2.348566 0.016218
v -1.594059 2.348482 0.027995
v -1.595215 2.348566 0.039773
v -1.598642 2.348816 0.051097
v -1.604205 2.349221 0.061534
v -1.611693 2.349767 0.070682
v -1.620817 2.350432 0.078190
v -1.631226 2.351191 0.083768
v -1.642521 2.352015 0.087204
v -1.654267 2.352871 0.088364
v -1.666013 2.353727 0.087204
v -1.677308 2.354551 0.083768
v -1.687717 2.355310 0.078190
v -1.696841 2.355975 0.070682
v -1.704329 2.356521 0.061534
v -1.709893 2.356926 0.051097
v -1.713319 2.357176 0.039773
v -1.714476 2.357260 0.027995
v -1.713319 2.357176 0.016218
v -1.709893 2.356926 0.004893
v -1.704329 2.356521 -0.005544
v -1.696841 2.355975 -0.014692
v -1.687717 2.355310 -0.022199
v -1.677308 2.354551 -0.027778
v -1.666013 2.353727 -0.031213
v -1.653898 2.357927 -0.032373
v -1.642152 2.357071 -0.031213
v -1.630858 2.356248 -0.027778
v -1.620448 2.355489 -0.022199
v -1.611325 2.354824 -0.014692
v -1.603837 2.354278 -0.005544
v -1.598273 2.353872 0.004893
v -1.594847 2.353622 0.016218
v -1.593690 2.353538 0.027995
v -1.594847 2.353622 0.039773
v -1.598273 2.353872 0.051097
v -1.603837 2.354278 0.061534
v -1.611325 2.354824 0.070682
v -1.620448 2.355489 0.078190
v -1.630858 2.356248 0.083768
v -1.642152 2.357071 0.087204
v -1.653898 2.357927 0.088364
v -1.665645 2.358784 0.087204
v -1.676939 2.359607 0.083768
v -1.687348 2.360366 0.078190
v -1.696472 2.361031 0.070682
v -1.703960 2.361577 0.061534
v -1.709524 2.361983 0.051097
v -1.712950 2.362232 0.039773
v -1.714107 2.362317 0.027995
v -1.712950 2.362232 0.016218
v -1.709524 2.361983 0.004893
v -1.703960 2.361577 -0.005544
v -1.696472 2.361031 -0.014692
v -1.687348 2.360366 -0.022199
v -1.676939 2.359607 -0.027778
v -1.665645 2.358784 -0.031213
vn 0.0045 -0.0000 -1.0000
vn 0.0001 -0.0000 -1.0000
vn 0.1954 -0.0003 -0.9807
vn 0.1996 -0.0003 -0.9799
vn 0.3832 -0.0008 -0.9237
vn 0.3869 -0.0008 -0.9221
vn 0.5561 -0.0013 -0.8311
vn 0.5591 -0.0013 -0.8291
vn 0.7076 -0.0019 -0.7066
vn 0.7097 -0.0019 -0.7045
vn 0.8318 -0.0025 -0.5550
vn 0.8331 -0.0025 -0.5531
vn 0.9241 -0.0029 -0.3822
vn 0.9247 -0.0029 -0.3808
vn 0.9808 -0.0032 -0.1948
vn 0.9810 -0.0032 -0.1940
vn 1.0000 -0.0034 -0.0000
vn 0.9808 -0.0032 0.1948
vn 0.9810 -0.0032 0.1940
vn 0.9241 -0.0029 0.3822
vn 0.9247 -0.0029 0.3808
vn 0.8318 -0.0025 0.5550
vn 0.8331 -0.0025 0.5531
vn 0.7076 -0.0019 0.7066
vn 0.7097 -0.0019 0.7045
vn 0.5561 -0.0013 0.8311
vn 0.5591 -0.0013 0.8291
vn 0.3832 -0.0008 0.9237
vn 0.3869 -0.0008 0.9221
vn 0.1954 -0.0003 0.9807
vn 0.1996 -0.0003 0.9799
vn 0.0001 -0.0000 1.0000
vn 0.0045 -0.0000 1.0000
vn -0.1953 0.0001 0.9807
vn -0.1910 0.0001 0.9816
vn -0.3831 -0.0000 0.9237
vn -0.3792 -0.0000 0.9253
vn -0.5561 -0.0003 0.8311
vn -0.5529 -0.0003 0.8332
vn -0.7076 -0.0007 0.7066
vn -0.7053 -0.0007 0.7089
vn -0.8318 -0.0011 0.5550
vn -0.8304 -0.0011 0.5572
vn -0.9241 -0.0014 0.3822
vn -0.9234 -0.0014 0.3839
vn -0.9808 -0.0017 0.1948
vn -0.9807 -0.0017 0.1957
vn -1.0000 -0.0018 -0.0000
vn -0.9808 -0.0017 -0.1948
vn -0.9807 -0.0017 -0.1957
vn -0.9241 -0.0014 -0.3822
vn -0.9234 -0.0014 -0.3839
vn -0.8318 -0.0011 -0.5550
vn -0.8304 -0.0011 -0.5572
vn -0.7076 -0.0007 -0.7066
vn -0.7053 -0.0007 -0.7089
vn -0.5561 -0.0003 -0.8311
vn -0.5529 -0.0003 -0.8332
vn -0.3831 -0.0000 -0.9237
vn -0.3792 -0.0000 -0.9253
vn -0.0000 1.0000 -0.0000
vn -0.1953 0.0001 -0.9807
vn -0.1910 0.0001 -0.9816
vn -0.0679 -0.9974 -0.0243
vn -0.0632 -0.9977 -0.0229
vn -0.1946 0.0142 0.9808
vn -0.3817 0.0278 0.9239
vn -0.0499 -0.9987 0.0095
vn -0.0522 -0.9985 0.0138
vn -0.0864 -0.9960 0.0206
vn -0.0902 -0.9958 0.0175
vn -0.0902 -0.9958 -0.0175
vn -0.0864 -0.9960 -0.0206
vn -0.0499 -0.9987 -0.0095
vn -0.0485 -0.9988 -0.0048
vn -0.0679 -0.9974 0.0243
vn -0.0727 -0.9970 0.0248
vn -0.0974 -0.9952 -0.0000
vn -0.0969 -0.9953 -0.0048
vn -0.0590 -0.9980 -0.0206
vn -0.0552 -0.9983 0.0175
vn -0.0932 -0.9956 0.0138
vn -0.0821 -0.9964 -0.0229
vn -0.0480 -0.9988 -0.0000
vn -0.0775 -0.9967 0.0243
vn -0.0955 -0.9954 -0.0095
vn -0.0552 -0.9983 -0.0175
vn -0.0590 -0.9980 0.0206
vn -0.0955 -0.9954 0.0095
vn -0.0775 -0.9967 -0.0243
vn -0.0485 -0.9988 0.0048
vn -0.0821 -0.9964 0.0229
vn -0.0932 -0.9956 -0.0138
vn -0.0522 -0.9985 -0.0138
vn -0.0632 -0.9977 0.0229
vn -0.0969 -0.9953 0.0048
vn -0.0727 -0.9970 -0.0248
vn -0.0727 -0.9974 -0.0000
vn 0.7052 -0.0514 0.7071
vn 0.5541 -0.0404 0.8315
vn -0.1946 0.0142 -0.9808
vn -0.0000 -0.0000 -1.0000
vn -0.5541 0.0404 0.8315
vn 0.3817 -0.0278 0.9239
vn 0.1946 -0.0142 -0.9808
vn -0.7052 0.0514 0.7071
vn 0.1946 -0.0142 0.9808
vn 0.3817 -0.0278 -0.9239
vn -0.8293 0.0605 0.5556
vn -0.0000 -0.0000 1.0000
vn 0.5541 -0.0404 -0.8315
vn -0.9214 0.0672 0.3827
vn 0.7052 -0.0514 -0.7071
vn -0.9782 0.0713 0.1951
vn 0.8293 -0.0605 -0.5556
vn -0.9974 0.0727 -0.0000
vn 0.9214 -0.0672 -0.3827
vn -0.9782 0.0713 -0.1951
vn 0.9782 -0.0713 -0.1951
vn -0.9214 0.0672 -0.3827
vn 0.9974 -0.0727 -0.0000
vn -0.8293 0.0605 -0.5556
vn 0.9782 -0.0713 0.1951
vn -0.7052 0.0514 -0.7071
vn 0.9214 -0.0672 0.3827
vn -0.5541 0.0404 -0.8315
vn 0.8293 -0.0605 0.5556
vn -0.3817 0.0278 -0.9239
vt 0.752209 0.731170
vt 0.752209 0.990333
vt 0.752426 0.990333
vt 0.752426 0.951616
vt 0.794947 0.728054
vt 0.794947 0.986112
vt 0.795277 0.951616
vt 0.795277 0.986112
vt 0.836042 0.725058
vt 0.836042 0.973613
vt 0.836481 0.951616
vt 0.836481 0.973613
vt 0.873916 0.722297
vt 0.873916 0.953316
vt 0.874455 0.951616
vt 0.874455 0.953316
vt 0.907112 0.719877
vt 0.907654 0.719877
vt 0.907112 0.926000
vt 0.907654 0.951616
vt 0.907740 0.926000
vt 0.874369 0.717891
vt 0.934356 0.892715
vt 0.874369 0.951616
vt 0.935056 0.892715
vt 0.836395 0.716415
vt 0.954600 0.854741
vt 0.836395 0.951616
vt 0.955353 0.854741
vt 0.795191 0.715506
vt 0.967066 0.813537
vt 0.795191 0.951616
vt 0.967853 0.813537
vt 0.752340 0.715199
vt 0.971275 0.770686
vt 0.752340 0.951616
vt 0.972073 0.770686
vt 0.709489 0.715506
vt 0.967066 0.727835
vt 0.709489 0.951616
vt 0.967853 0.727835
vt 0.668285 0.716415
vt 0.954600 0.686631
vt 0.668285 0.951616
vt 0.955353 0.686631
vt 0.630311 0.717891
vt 0.934356 0.648657
vt 0.630311 0.951616
vt 0.935056 0.648657
vt 0.597026 0.719877
vt 0.907112 0.719877
vt 0.907112 0.615372
vt 0.597026 0.951616
vt 0.907740 0.951616
vt 0.907740 0.615372
vt 0.873916 0.722297
vt 0.873916 0.588056
vt 0.874455 0.951616
vt 0.874455 0.588056
vt 0.836042 0.725058
vt 0.836042 0.567759
vt 0.836481 0.951616
vt 0.836481 0.567759
vt 0.794947 0.728054
vt 0.794947 0.555260
vt 0.795277 0.951616
vt 0.795277 0.555260
vt 0.752209 0.731170
vt 0.752209 0.551039
vt 0.752426 0.951616
vt 0.752426 0.551039
vt 0.709472 0.734286
vt 0.709472 0.555260
vt 0.709575 0.951616
vt 0.709575 0.555260
vt 0.668377 0.737282
vt 0.668377 0.567759
vt 0.668371 0.951616
vt 0.668371 0.567759
vt 0.630504 0.740043
vt 0.630504 0.588056
vt 0.630397 0.951616
vt 0.630397 0.588056
vt 0.597307 0.742463
vt 0.597026 0.742463
vt 0.597307 0.615372
vt 0.597026 0.951616
vt 0.597112 0.615372
vt 0.630311 0.744449
vt 0.570063 0.648657
vt 0.630311 0.951616
vt 0.569797 0.648657
vt 0.668285 0.745925
vt 0.549820 0.686631
vt 0.668285 0.951616
vt 0.549499 0.686631
vt 0.709489 0.746834
vt 0.537354 0.727835
vt 0.709489 0.951616
vt 0.537000 0.727835
vt 0.752340 0.747141
vt 0.533144 0.770686
vt 0.752340 0.951616
vt 0.532779 0.770686
vt 0.795191 0.746834
vt 0.537354 0.813537
vt 0.795191 0.951616
vt 0.537000 0.813537
vt 0.836395 0.745925
vt 0.549820 0.854741
vt 0.836395 0.951616
vt 0.549499 0.854741
vt 0.874369 0.744449
vt 0.570063 0.892715
vt 0.874369 0.951616
vt 0.569797 0.892715
vt 0.907654 0.742463
vt 0.597307 0.742463
vt 0.597307 0.926000
vt 0.907654 0.951616
vt 0.597112 0.951616
vt 0.597112 0.926000
vt 0.630504 0.740043
vt 0.630504 0.953316
vt 0.630397 0.951616
vt 0.630397 0.953316
vt 0.668377 0.737282
vt 0.668377 0.973613
vt 0.668371 0.973613
vt 0.668371 0.951616
vt 0.709472 0.734286
vt 0.709472 0.986112
vt 0.709575 0.986112
vt 0.709575 0.951616
vt 0.752081 0.919052
vt 0.752081 0.729409
vt 0.780949 0.916201
vt 0.780949 0.727305
vt 0.808708 0.907759
vt 0.808708 0.725281
vt 0.834291 0.894048
vt 0.834291 0.723416
vt 0.856714 0.875597
vt 0.856714 0.721781
vt 0.857251 0.721781
vt 0.875117 0.853114
vt 0.834768 0.720440
vt 0.888791 0.827463
vt 0.809117 0.719443
vt 0.897211 0.799631
vt 0.781285 0.718829
vt 0.900054 0.770686
vt 0.752340 0.718622
vt 0.897211 0.741741
vt 0.723395 0.718829
vt 0.888791 0.713909
vt 0.695563 0.719443
vt 0.875117 0.688258
vt 0.669912 0.720440
vt 0.856714 0.665775
vt 0.647429 0.721781
vt 0.856714 0.721781
vt 0.834291 0.647324
vt 0.834291 0.723416
vt 0.808708 0.633614
vt 0.808708 0.725281
vt 0.780949 0.625171
vt 0.780949 0.727305
vt 0.752081 0.622320
vt 0.752081 0.729409
vt 0.723213 0.625171
vt 0.723213 0.731514
vt 0.695454 0.633614
vt 0.695454 0.733538
vt 0.669872 0.647324
vt 0.669872 0.735403
vt 0.647448 0.665775
vt 0.647429 0.737038
vt 0.629046 0.688258
vt 0.669912 0.738379
vt 0.615371 0.713909
vt 0.695563 0.739376
vt 0.606951 0.741741
vt 0.723395 0.739990
vt 0.604108 0.770686
vt 0.752340 0.740197
vt 0.606951 0.799631
vt 0.781285 0.739990
vt 0.615371 0.827463
vt 0.809117 0.739376
vt 0.629046 0.853114
vt 0.834768 0.738379
vt 0.647448 0.875597
vt 0.647448 0.737038
vt 0.857251 0.737038
vt 0.669872 0.894048
vt 0.669872 0.735403
vt 0.695454 0.907759
vt 0.695454 0.733538
vt 0.723213 0.916201
vt 0.723213 0.731514
vt 0.205581 0.978111
vt 0.752987 0.741836
vt 0.234449 0.975260
vt 0.781855 0.739732
vt 0.262208 0.966817
vt 0.809614 0.737708
vt 0.287791 0.953107
vt 0.835197 0.735843
vt 0.310214 0.934656
vt 0.857620 0.734208
vt 0.857251 0.734208
vt 0.328617 0.912173
vt 0.834768 0.732866
vt 0.342291 0.886522
vt 0.809117 0.731870
vt 0.350712 0.858690
vt 0.781285 0.731256
vt 0.353554 0.829745
vt 0.752340 0.731048
vt 0.350712 0.800800
vt 0.723395 0.731256
vt 0.342291 0.772968
vt 0.695563 0.731870
vt 0.328617 0.747317
vt 0.669912 0.732866
vt 0.310214 0.724834
vt 0.647429 0.734208
vt 0.857620 0.734208
vt 0.287791 0.706383
vt 0.835197 0.735843
vt 0.262208 0.692672
vt 0.809614 0.737708
vt 0.234449 0.684230
vt 0.781855 0.739732
vt 0.205581 0.681379
vt 0.752987 0.741836
vt 0.176713 0.684230
vt 0.724119 0.743941
vt 0.148954 0.692672
vt 0.696360 0.745965
vt 0.123372 0.706383
vt 0.670778 0.747830
vt 0.100948 0.724834
vt 0.648354 0.749464
vt 0.647429 0.749464
vt 0.082546 0.747317
vt 0.669912 0.750806
vt 0.068872 0.772968
vt 0.695563 0.751803
vt 0.060451 0.800800
vt 0.723395 0.752417
vt 0.057608 0.829745
vt 0.752340 0.752624
vt 0.060451 0.858690
vt 0.781285 0.752417
vt 0.068872 0.886522
vt 0.809117 0.751803
vt 0.082546 0.912173
vt 0.834768 0.750806
vt 0.100948 0.934656
vt 0.648354 0.749464
vt 0.857251 0.749464
vt 0.123372 0.953107
vt 0.670778 0.747830
vt 0.148954 0.966817
vt 0.696360 0.745965
vt 0.176713 0.975260
vt 0.724119 0.743941
s 1
f 1/1/1 2/4/2 4/7/3 3/5/4
f 3/5/4 4/7/3 6/11/5 5/9/6
f 5/9/6 6/11/5 8/15/7 7/13/8
f 7/13/8 8/15/7 10/20/9 9/17/10
f 9/18/10 10/20/9 12/24/11 11/22/12
f 11/22/12 12/24/11 14/28/13 13/26/14
f 13/26/14 14/28/13 16/32/15 15/30/16
f 15/30/16 16/32/15 18/36/17 17/34/17
f 17/34/17 18/36/17 20/40/18 19/38/19
f 19/38/19 20/40/18 22/44/20 21/42/21
f 21/42/21 22/44/20 24/48/22 23/46/23
f 23/46/23 24/48/22 26/53/24 25/50/25
f 25/51/25 26/54/24 28/58/26 27/56/27
f 27/56/27 28/58/26 30/62/28 29/60/29
f 29/60/29 30/62/28 32/66/30 31/64/31
f 31/64/31 32/66/30 34/70/32 33/68/33
f 33/68/33 34/70/32 36/74/34 35/72/35
f 35/72/35 36/74/34 38/78/36 37/76/37
f 37/76/37 38/78/36 40/82/38 39/80/39
f 39/80/39 40/82/38 42/87/40 41/84/41
f 41/85/41 42/87/40 44/91/42 43/89/43
f 43/89/43 44/91/42 46/95/44 45/93/45
f 45/93/45 46/95/44 48/99/46 47/97/47
f 47/97/47 48/99/46 50/103/48 49/101/48
f 49/101/48 50/103/48 52/107/49 51/105/50
f 51/105/50 52/107/49 54/111/51 53/109/52
f 53/109/52 54/111/51 56/115/53 55/113/54
f 55/113/54 56/115/53 58/120/55 57/117/56
f 57/118/56 58/121/55 60/125/57 59/123/58
f 59/123/58 60/125/57 62/130/59 61/127/60
f 4/8/61 2/3/61 64/133/61 62/129/61 60/126/61 58/122/61 56/116/61 54/112/61 52/108/61 50/104/61 48/100/61 46/96/61 44/92/61 42/88/61 40/83/61 38/79/61 36/75/61 34/71/61 32/67/61 30/63/61 28/59/61 26/55/61 24/49/61 22/45/61 20/41/61 18/37/61 16/33/61 14/29/61 12/25/61 10/21/61 8/16/61 6/12/61
f 61/127/60 62/130/59 64/134/62 63/131/63
f 63/131/63 64/134/62 2/4/2 1/1/1
f 3/6/64 5/10/65 67/139/65 66/137/64
f 66/138/66 67/140/67 99/207/67 98/205/66
f 21/43/68 23/47/69 76/158/69 75/156/68
f 39/81/70 41/86/71 85/177/71 84/175/70
f 57/119/72 59/124/73 94/196/73 93/193/72
f 13/27/74 15/31/75 72/150/75 71/148/74
f 31/65/76 33/69/77 81/169/77 80/167/76
f 49/102/78 51/106/79 90/187/79 89/185/78
f 5/10/65 7/14/80 68/141/80 67/139/65
f 23/47/69 25/52/81 77/160/81 76/158/69
f 41/86/71 43/90/82 86/179/82 85/177/71
f 59/124/73 61/128/83 95/198/83 94/196/73
f 15/31/75 17/35/84 73/152/84 72/150/75
f 33/69/77 35/73/85 82/171/85 81/169/77
f 51/106/79 53/110/86 91/189/86 90/187/79
f 7/14/80 9/19/87 69/143/87 68/141/80
f 25/52/81 27/57/88 78/163/88 77/160/81
f 43/90/82 45/94/89 87/181/89 86/179/82
f 61/128/83 63/132/90 96/200/90 95/198/83
f 17/35/84 19/39/91 74/154/91 73/152/84
f 35/73/85 37/77/92 83/173/92 82/171/85
f 53/110/86 55/114/93 92/191/93 91/189/86
f 9/19/87 11/23/94 70/146/94 69/143/87
f 27/57/88 29/61/95 79/165/95 78/163/88
f 45/94/89 47/98/96 88/183/96 87/181/89
f 1/2/97 3/6/64 66/137/64 65/135/97
f 63/132/90 1/2/97 65/135/97 96/200/90
f 19/39/91 21/43/68 75/156/68 74/154/91
f 37/77/92 39/81/70 84/175/70 83/173/92
f 55/114/93 57/119/72 93/193/72 92/191/93
f 11/23/94 13/27/74 71/148/74 70/146/94
f 29/61/95 31/65/76 80/167/76 79/165/95
f 47/98/96 49/102/78 89/185/78 88/183/96
f 97/202/98 98/204/98 99/206/98 100/208/98 101/210/98 102/213/98 103/215/98 104/217/98 105/219/98 106/221/98 107/223/98 108/225/98 109/227/98 110/230/98 111/232/98 112/234/98 113/236/98 114/238/98 115/240/98 116/242/98 117/244/98 118/247/98 119/249/98 120/251/98 121/253/98 122/255/98 123/257/98 124/259/98 125/261/98 126/264/98 127/266/98 128/268/98
f 93/194/99 94/197/100 126/265/100 125/262/99
f 80/168/101 81/170/102 113/237/102 112/235/101
f 67/140/67 68/142/103 100/209/103 99/207/67
f 94/197/100 95/199/104 127/267/104 126/265/100
f 81/170/102 82/172/105 114/239/105 113/237/102
f 68/142/103 69/144/106 101/211/106 100/209/103
f 95/199/104 96/201/107 128/269/107 127/267/104
f 82/172/105 83/174/108 115/241/108 114/239/105
f 69/145/106 70/147/109 102/214/109 101/212/106
f 96/201/107 65/136/110 97/203/110 128/269/107
f 83/174/108 84/176/111 116/243/111 115/241/108
f 70/147/109 71/149/112 103/216/112 102/214/109
f 84/176/111 85/178/113 117/245/113 116/243/111
f 71/149/112 72/151/114 104/218/114 103/216/112
f 85/178/113 86/180/115 118/248/115 117/246/113
f 72/151/114 73/153/116 105/220/116 104/218/114
f 86/180/115 87/182/117 119/250/117 118/248/115
f 73/153/116 74/155/118 106/222/118 105/220/116
f 87/182/117 88/184/119 120/252/119 119/250/117
f 74/155/118 75/157/120 107/224/120 106/222/118
f 88/184/119 89/186/121 121/254/121 120/252/119
f 75/157/120 76/159/122 108/226/122 107/224/120
f 89/186/121 90/188/123 122/256/123 121/254/121
f 76/159/122 77/161/124 109/228/124 108/226/122
f 90/188/123 91/190/125 123/258/125 122/256/123
f 77/162/124 78/164/126 110/231/126 109/229/124
f 91/190/125 92/192/127 124/260/127 123/258/125
f 78/164/126 79/166/128 111/233/128 110/231/126
f 65/136/110 66/138/66 98/205/66 97/203/110
f 92/192/127 93/195/99 125/263/99 124/260/127
f 79/166/128 80/168/101 112/235/101 111/233/128
