# Blender 3.4.1
# www.blender.org
mtllib skybox.mtl
o Cube
v 1.000000 1.000000 -1.000000
v 1.000000 -1.000000 -1.000000
v 1.000000 1.000000 1.000000
v 1.000000 -1.000000 1.000000
v -1.000000 1.000000 -1.000000
v -1.000000 -1.000000 -1.000000
v -1.000000 1.000000 1.000000
v -1.000000 -1.000000 1.000000
vn -0.0000 -1.0000 -0.0000
vn -0.0000 -0.0000 -1.0000
vn 1.0000 -0.0000 -0.0000
vn -0.0000 1.0000 -0.0000
vn -1.0000 -0.0000 -0.0000
vn -0.0000 -0.0000 1.0000
vt 0.500022 0.999935
vt 0.749978 0.749978
vt 0.500022 0.250065
vt 0.749978 0.500022
vt 0.250065 0.999935
vt 0.000108 0.749978
vt 0.999935 0.749978
vt 0.000108 0.500022
vt 0.250065 0.250065
vt 0.999935 0.500022
vt 0.500022 0.749978
vt 0.500022 0.500022
vt 0.250065 0.749978
vt 0.250065 0.500022
s 0
usemtl Material
f 1/1/1 3/5/1 7/13/1 5/11/1
f 4/8/2 8/14/2 7/13/2 3/6/2
f 8/14/3 6/12/3 5/11/3 7/13/3
f 6/12/4 8/14/4 4/9/4 2/3/4
f 2/4/5 4/10/5 3/7/5 1/2/5
f 6/12/6 2/4/6 1/2/6 5/11/6
