# Blender 3.4.1
# www.blender.org
mtllib stool.mtl
o Cube
v 0.163538 0.355809 -0.163538
v 0.163538 0.355809 0.163538
v 0.163538 0.355809 0.081769
v -0.081769 0.355809 0.163538
v -0.163538 0.355809 0.163538
v -0.163538 0.355809 0.081769
v -0.163538 0.355809 -0.163538
v -0.081769 0.355809 -0.163538
v -0.222340 0.753082 0.000000
v 0.000000 0.753082 -0.222340
v 0.222340 0.753082 0.000000
v 0.000000 0.753082 0.222340
v 0.000000 0.753082 0.000000
v -0.222340 0.753082 0.111170
v -0.111170 0.753082 -0.222340
v 0.222340 0.753082 -0.111170
v 0.111170 0.753082 0.222340
v -0.222340 0.753082 -0.111170
v 0.111170 0.753082 -0.222340
v 0.222340 0.753082 0.111170
v -0.111170 0.753082 0.222340
v 0.000000 0.753082 0.111170
v 0.000000 0.753082 -0.111170
v -0.111170 0.753082 0.000000
v 0.111170 0.753082 0.000000
v 0.111170 0.753082 -0.111170
v -0.111170 0.753082 -0.111170
v -0.111170 0.753082 0.111170
v 0.111170 0.753082 0.111170
v 0.055585 0.753082 -0.222340
v 0.055585 0.753082 0.000000
v 0.055585 0.753082 0.222340
v 0.055585 0.753082 -0.111170
v 0.055585 0.753082 0.111170
v -0.055585 0.753082 0.222340
v -0.055585 0.753082 -0.222340
v -0.055585 0.753082 0.000000
v -0.055585 0.753082 -0.111170
v -0.055585 0.753082 0.111170
v 0.222340 0.753082 0.055585
v -0.222340 0.753082 0.055585
v 0.000000 0.753082 0.055585
v -0.111170 0.753082 0.055585
v 0.111170 0.753082 0.055585
v 0.055585 0.753082 0.055585
v -0.055585 0.753082 0.055585
v -0.222340 0.753082 -0.055585
v 0.000000 0.753082 -0.055585
v 0.222340 0.753082 -0.055585
v 0.111170 0.753082 -0.055585
v -0.111170 0.753082 -0.055585
v 0.055585 0.753082 -0.055585
v -0.055585 0.753082 -0.055585
v -0.078000 0.427011 -0.156000
v -0.156000 0.427011 -0.156000
v -0.156000 0.427011 0.078000
v -0.156000 0.427011 0.156000
v -0.078000 0.427011 0.156000
v 0.156000 0.427011 0.078000
v 0.156000 0.427011 0.156000
v 0.156000 0.427011 -0.156000
v 0.078000 0.427011 -0.156000
v 0.078000 0.427011 0.156000
v 0.078000 0.427011 0.078000
v -0.078000 0.427011 0.078000
v 0.156000 0.427011 -0.078000
v -0.156000 0.427011 -0.078000
v 0.078000 0.427011 -0.078000
v -0.078000 0.427011 -0.078000
v -0.121601 0.753082 0.222340
v -0.222340 0.753082 0.121601
v -0.137360 0.753082 0.221100
v -0.152731 0.753082 0.217410
v -0.167336 0.753082 0.211360
v -0.180814 0.753082 0.203101
v -0.192835 0.753082 0.192835
v -0.203101 0.753082 0.180814
v -0.211360 0.753082 0.167336
v -0.217410 0.753082 0.152731
v -0.221100 0.753082 0.137360
v -0.222340 0.797386 0.121601
v -0.121601 0.797386 0.222340
v -0.221100 0.797386 0.137360
v -0.217410 0.797386 0.152731
v -0.211360 0.797386 0.167336
v -0.203101 0.797386 0.180814
v -0.192835 0.797386 0.192835
v -0.180814 0.797386 0.203101
v -0.167336 0.797386 0.211360
v -0.152731 0.797386 0.217410
v -0.137360 0.797386 0.221100
v -0.222340 0.753082 -0.121601
v -0.121601 0.753082 -0.222340
v -0.221100 0.753082 -0.137360
v -0.217410 0.753082 -0.152731
v -0.211360 0.753082 -0.167336
v -0.203101 0.753082 -0.180814
v -0.192835 0.753082 -0.192835
v -0.180814 0.753082 -0.203101
v -0.167336 0.753082 -0.211360
v -0.152731 0.753082 -0.217410
v -0.137360 0.753082 -0.221100
v -0.121601 0.797386 -0.222340
v -0.222340 0.797386 -0.121601
v -0.137360 0.797386 -0.221100
v -0.152731 0.797386 -0.217410
v -0.167336 0.797386 -0.211360
v -0.180814 0.797386 -0.203101
v -0.192835 0.797386 -0.192835
v -0.203101 0.797386 -0.180814
v -0.211360 0.797386 -0.167336
v -0.217410 0.797386 -0.152731
v -0.221100 0.797386 -0.137360
v 0.222340 0.753082 0.121601
v 0.121601 0.753082 0.222340
v 0.221100 0.753082 0.137360
v 0.217410 0.753082 0.152731
v 0.211360 0.753082 0.167336
v 0.203101 0.753082 0.180814
v 0.192835 0.753082 0.192835
v 0.180814 0.753082 0.203101
v 0.167336 0.753082 0.211360
v 0.152731 0.753082 0.217410
v 0.137360 0.753082 0.221100
v 0.121601 0.797386 0.222340
v 0.222340 0.797386 0.121601
v 0.137360 0.797386 0.221100
v 0.152731 0.797386 0.217410
v 0.167336 0.797386 0.211360
v 0.180814 0.797386 0.203101
v 0.192835 0.797386 0.192835
v 0.203101 0.797386 0.180814
v 0.211360 0.797386 0.167336
v 0.217410 0.797386 0.152731
v 0.221100 0.797386 0.137360
v 0.121601 0.753082 -0.222340
v 0.222340 0.753082 -0.121601
v 0.137360 0.753082 -0.221100
v 0.152731 0.753082 -0.217410
v 0.167336 0.753082 -0.211360
v 0.180814 0.753082 -0.203101
v 0.192835 0.753082 -0.192835
v 0.203101 0.753082 -0.180814
v 0.211360 0.753082 -0.167336
v 0.217410 0.753082 -0.152731
v 0.221100 0.753082 -0.137360
v 0.222340 0.797386 -0.121601
v 0.121601 0.797386 -0.222340
v 0.221100 0.797386 -0.137360
v 0.217410 0.797386 -0.152731
v 0.211360 0.797386 -0.167336
v 0.203101 0.797386 -0.180814
v 0.192835 0.797386 -0.192835
v 0.180814 0.797386 -0.203101
v 0.167336 0.797386 -0.211360
v 0.152731 0.797386 -0.217410
v 0.137360 0.797386 -0.221100
v 0.081769 0.355809 -0.163538
v 0.081769 0.355809 0.163538
v 0.081769 0.355809 0.081769
v -0.081769 0.355809 0.081769
v 0.163538 0.355809 -0.081769
v -0.163538 0.355809 -0.081769
v 0.081769 0.355809 -0.081769
v -0.081769 0.355809 -0.081769
v 0.202714 0.002648 -0.101357
v 0.101357 0.002648 -0.101357
v -0.101357 0.002648 -0.101357
v -0.202714 0.002648 -0.101357
v 0.101357 0.002648 -0.202714
v 0.202714 0.002648 -0.202714
v 0.202714 0.002648 0.101357
v 0.101357 0.002648 0.101357
v -0.101357 0.002648 0.101357
v -0.101357 0.002648 0.202714
v -0.202714 0.002648 0.202714
v -0.202714 0.002648 0.101357
v 0.202714 0.002648 0.202714
v 0.101357 0.002648 0.202714
v -0.202714 0.002648 -0.202714
v -0.101357 0.002648 -0.202714
vn -0.0000 -0.0000 1.0000
vn -0.0000 -1.0000 -0.0000
vn -0.0000 1.0000 -0.0000
vn -0.0000 -0.0000 -1.0000
vn -0.0000 -0.0554 0.9985
vn 1.0000 -0.0000 -0.0000
vn -1.0000 -0.0000 -0.0000
vn -0.0000 -0.0686 0.9976
vn -0.9907 0.1362 -0.0000
vn 0.9976 -0.0686 -0.0000
vn -0.0000 0.1053 0.9944
vn -0.0000 0.1053 -0.9944
vn -0.9944 0.1053 -0.0000
vn -0.0000 0.1362 0.9907
vn -0.0000 -0.0686 -0.9976
vn -0.0000 0.1362 -0.9907
vn 0.9907 0.1362 -0.0000
vn -0.9976 -0.0686 -0.0000
vn -0.0785 -0.0000 0.9969
vn -0.2334 -0.0000 0.9724
vn -0.3827 -0.0000 0.9239
vn -0.5225 -0.0000 0.8526
vn -0.6494 -0.0000 0.7604
vn -0.7604 -0.0000 0.6494
vn -0.8526 -0.0000 0.5225
vn -0.9239 -0.0000 0.3827
vn -0.9724 -0.0000 0.2334
vn -0.9969 -0.0000 0.0785
vn -0.0785 -0.0000 -0.9969
vn -0.2334 -0.0000 -0.9724
vn -0.3827 -0.0000 -0.9239
vn -0.5225 -0.0000 -0.8526
vn -0.6494 -0.0000 -0.7604
vn -0.7604 -0.0000 -0.6494
vn -0.8526 -0.0000 -0.5225
vn -0.9239 -0.0000 -0.3827
vn -0.9724 -0.0000 -0.2334
vn -0.9969 -0.0000 -0.0785
vn 0.9969 -0.0000 -0.0785
vn 0.9724 -0.0000 -0.2334
vn 0.9239 -0.0000 -0.3827
vn 0.8526 -0.0000 -0.5225
vn 0.7604 -0.0000 -0.6494
vn 0.6494 -0.0000 -0.7604
vn 0.5225 -0.0000 -0.8526
vn 0.3827 -0.0000 -0.9239
vn 0.2334 -0.0000 -0.9724
vn 0.0785 -0.0000 -0.9969
vn 0.0785 -0.0000 0.9969
vn 0.2334 -0.0000 0.9724
vn 0.3827 -0.0000 0.9239
vn 0.5225 -0.0000 0.8526
vn 0.6494 -0.0000 0.7604
vn 0.7604 -0.0000 0.6494
vn 0.8526 -0.0000 0.5225
vn 0.9239 -0.0000 0.3827
vn 0.9724 -0.0000 0.2334
vn 0.9969 -0.0000 0.0785
vn 0.9939 0.1103 -0.0000
vn -0.9939 0.1103 -0.0000
vn 0.9944 0.1053 -0.0000
vn -0.9985 -0.0554 -0.0000
vn -0.0000 -0.0554 -0.9985
vn -0.0000 0.1103 0.9939
vn -0.0000 0.1103 -0.9939
vn 0.9985 -0.0554 -0.0000
vn -0.0000 -0.0529 0.9986
vn -0.9986 -0.0529 -0.0000
vn -0.0000 -0.0529 -0.9986
vn 0.9986 -0.0529 -0.0000
vt 0.210102 0.470608
vt 0.112852 0.470608
vt 0.166678 0.470608
vt 0.102450 0.470608
vt 0.285184 0.470610
vt 0.177534 0.470608
vt 0.333808 0.456282
vt 0.312097 0.470610
vt 0.069883 0.470608
vt 0.344664 0.434570
vt 0.048625 0.470608
vt 0.059027 0.470608
vt 0.258272 0.000060
vt 0.037769 0.470608
vt 0.333808 0.456282
vt 0.156276 0.470608
vt 0.005201 0.470608
vt 0.145420 0.470608
vt 0.217903 0.000060
vt 0.366376 0.434570
vt 0.431396 0.118074
vt 0.435313 0.059037
vt 0.431396 0.236168
vt 0.405794 0.029518
vt 0.431396 0.177120
vt 0.435313 0.000000
vt 0.431396 0.295214
vt 0.464831 0.029518
vt 0.435313 0.029518
vt 0.446155 0.118074
vt 0.450072 0.059037
vt 0.446155 0.236168
vt 0.405794 0.044278
vt 0.446155 0.177120
vt 0.420554 0.000000
vt 0.446155 0.295214
vt 0.464831 0.014759
vt 0.416636 0.118074
vt 0.420554 0.059037
vt 0.416636 0.236168
vt 0.405794 0.014759
vt 0.416636 0.177120
vt 0.450072 0.000000
vt 0.416636 0.295214
vt 0.464831 0.044278
vt 0.450072 0.029518
vt 0.420554 0.029518
vt 0.435313 0.044278
vt 0.435313 0.014759
vt 0.420554 0.014759
vt 0.119805 1.000000
vt 0.203149 1.000000
vt 0.420554 0.044278
vt 0.012154 1.000000
vt 0.149323 1.000000
vt 0.041672 1.000000
vt 0.065979 1.000000
vt 0.450072 0.044278
vt 0.450072 0.014759
vt 0.095498 1.000000
vt 0.173631 1.000000
vt 0.424016 0.236168
vt 0.405794 0.022139
vt 0.435313 0.022139
vt 0.438775 0.295214
vt 0.464831 0.022139
vt 0.420554 0.022139
vt 0.127184 1.000000
vt 0.325928 0.434520
vt 0.450072 0.022139
vt 0.088118 1.000000
vt 0.367349 0.000050
vt 0.424016 0.295214
vt 0.464831 0.036898
vt 0.438775 0.236168
vt 0.405794 0.036898
vt 0.435313 0.036898
vt 0.356994 0.000050
vt 0.420554 0.036898
vt 0.141944 1.000000
vt 0.450072 0.036898
vt 0.346639 0.434520
vt 0.073359 1.000000
vt 0.424016 0.177120
vt 0.442692 0.000000
vt 0.438775 0.118074
vt 0.442692 0.059037
vt 0.442692 0.029518
vt 0.034292 1.000000
vt 0.442692 0.044278
vt 0.398415 0.000050
vt 0.442692 0.014759
vt 0.181010 1.000000
vt 0.377704 0.434520
vt 0.442692 0.022139
vt 0.374729 0.000000
vt 0.385084 0.434570
vt 0.442692 0.036898
vt 0.354018 0.434570
vt 0.405794 0.000000
vt 0.424016 0.118074
vt 0.427933 0.059037
vt 0.427933 0.029518
vt 0.438775 0.177120
vt 0.427933 0.000000
vt 0.427933 0.014759
vt 0.336283 0.000050
vt 0.195769 1.000000
vt 0.388060 0.434520
vt 0.427933 0.044278
vt 0.019533 1.000000
vt 0.427933 0.022139
vt 0.343663 0.000000
vt 0.333308 0.434570
vt 0.395439 0.434570
vt 0.364373 0.000000
vt 0.427933 0.036898
vt 0.354018 0.434570
vt 0.467352 0.233662
vt 0.144920 0.565489
vt 0.006202 0.565489
vt 0.155275 0.565489
vt 0.395439 0.434570
vt 0.387087 0.455281
vt 0.037268 0.565489
vt 0.047624 0.565489
vt 0.060028 0.565489
vt 0.343663 0.000000
vt 0.387087 0.455281
vt 0.070383 0.565489
vt 0.374729 0.000000
vt 0.178034 0.565489
vt 0.366376 0.455281
vt 0.101449 0.565489
vt 0.167679 0.565489
vt 0.113853 0.565489
vt 0.209101 0.565489
vt 0.124209 0.565489
vt 0.322952 0.000000
vt 0.467352 0.212951
vt 0.364373 0.434570
vt 0.387087 0.434570
vt 0.091094 0.565489
vt 0.374729 0.434500
vt 0.385084 0.000071
vt 0.376731 0.455281
vt 0.470429 0.449138
vt 0.428006 0.449138
vt 0.397442 0.434570
vt 0.354018 0.000071
vt 0.405794 0.434500
vt 0.448717 0.449138
vt 0.397442 0.455281
vt 0.376731 0.455281
vt 0.406295 0.449138
vt 0.333308 0.434570
vt 0.198745 0.565489
vt 0.366376 0.434570
vt 0.385084 0.000000
vt 0.387087 0.434570
vt 0.016557 0.565489
vt 0.343663 0.434500
vt 0.333308 0.000071
vt 0.456997 0.212951
vt 0.478208 0.212952
vt 0.376731 0.434570
vt 0.449718 0.449138
vt 0.395439 0.000071
vt 0.364373 0.434500
vt 0.456997 0.233662
vt 0.457497 0.212952
vt 0.376731 0.434570
vt 0.427006 0.449138
vt 0.415251 0.295214
vt 0.464831 0.045663
vt 0.447540 0.118074
vt 0.451457 0.059037
vt 0.413159 0.295214
vt 0.464667 0.047755
vt 0.411118 0.295216
vt 0.464177 0.049796
vt 0.409180 0.295218
vt 0.463374 0.051734
vt 0.407390 0.295219
vt 0.462277 0.053524
vt 0.405794 0.295223
vt 0.456997 0.118084
vt 0.460914 0.055120
vt 0.455401 0.118080
vt 0.459318 0.056483
vt 0.453611 0.118078
vt 0.457529 0.057579
vt 0.451673 0.118076
vt 0.455590 0.058382
vt 0.449632 0.118074
vt 0.453549 0.058872
vt 0.451457 0.059037
vt 0.447540 0.177111
vt 0.464831 0.072411
vt 0.415251 0.354250
vt 0.453549 0.059202
vt 0.449632 0.177111
vt 0.455590 0.059692
vt 0.451673 0.177113
vt 0.457529 0.060495
vt 0.453611 0.177114
vt 0.459318 0.061591
vt 0.455401 0.177118
vt 0.460914 0.062954
vt 0.405794 0.354259
vt 0.456997 0.177120
vt 0.462277 0.064550
vt 0.407390 0.354258
vt 0.463374 0.066340
vt 0.409180 0.354254
vt 0.464177 0.068278
vt 0.411118 0.354252
vt 0.464667 0.070319
vt 0.413159 0.354250
vt 0.419169 0.059037
vt 0.415251 0.118074
vt 0.405794 0.045663
vt 0.447540 0.236168
vt 0.417076 0.058872
vt 0.413159 0.118074
vt 0.415036 0.058382
vt 0.411118 0.118076
vt 0.413097 0.057579
vt 0.409180 0.118078
vt 0.411307 0.056483
vt 0.407390 0.118080
vt 0.409712 0.055120
vt 0.456997 0.236177
vt 0.405794 0.118084
vt 0.408349 0.053524
vt 0.455401 0.236174
vt 0.407252 0.051734
vt 0.453611 0.236172
vt 0.406449 0.049796
vt 0.451673 0.236170
vt 0.405959 0.047755
vt 0.449632 0.236168
vt 0.405794 0.072411
vt 0.447540 0.295204
vt 0.419169 0.059037
vt 0.415251 0.177111
vt 0.405959 0.070319
vt 0.449632 0.295204
vt 0.406449 0.068278
vt 0.451673 0.295206
vt 0.407252 0.066340
vt 0.453611 0.295208
vt 0.408349 0.064550
vt 0.455401 0.295212
vt 0.409712 0.062954
vt 0.456997 0.295214
vt 0.405794 0.177120
vt 0.411307 0.061591
vt 0.407390 0.177118
vt 0.413097 0.060495
vt 0.409180 0.177114
vt 0.415036 0.059692
vt 0.411118 0.177113
vt 0.417076 0.059202
vt 0.413159 0.177111
vt 0.451457 0.000000
vt 0.415251 0.177120
vt 0.464831 0.013374
vt 0.447540 0.295214
vt 0.453549 0.000165
vt 0.413159 0.177120
vt 0.455590 0.000655
vt 0.411118 0.177122
vt 0.457529 0.001458
vt 0.409180 0.177124
vt 0.459318 0.002554
vt 0.407390 0.177126
vt 0.460914 0.003917
vt 0.456997 0.295223
vt 0.405794 0.177130
vt 0.462277 0.005513
vt 0.455401 0.295219
vt 0.463374 0.007303
vt 0.453611 0.295218
vt 0.464177 0.009241
vt 0.451673 0.295216
vt 0.464667 0.011282
vt 0.449632 0.295214
vt 0.464831 0.104700
vt 0.447540 0.354250
vt 0.451457 0.118074
vt 0.415251 0.236156
vt 0.464667 0.106792
vt 0.449632 0.354250
vt 0.464177 0.108833
vt 0.451673 0.354252
vt 0.463374 0.110771
vt 0.453611 0.354254
vt 0.462277 0.112561
vt 0.455401 0.354258
vt 0.460914 0.114157
vt 0.456997 0.354259
vt 0.405794 0.236166
vt 0.459318 0.115520
vt 0.407390 0.236164
vt 0.457529 0.116616
vt 0.409180 0.236160
vt 0.455590 0.117419
vt 0.411118 0.236158
vt 0.453549 0.117909
vt 0.413159 0.236156
vt 0.405794 0.013374
vt 0.415251 0.236168
vt 0.419169 0.000000
vt 0.447540 0.177120
vt 0.405959 0.011282
vt 0.413159 0.236168
vt 0.406449 0.009241
vt 0.411118 0.236170
vt 0.407252 0.007303
vt 0.409180 0.236172
vt 0.408349 0.005513
vt 0.407390 0.236174
vt 0.409712 0.003917
vt 0.456997 0.177130
vt 0.405794 0.236177
vt 0.411307 0.002554
vt 0.455401 0.177126
vt 0.413097 0.001458
vt 0.453611 0.177124
vt 0.415036 0.000655
vt 0.451673 0.177122
vt 0.417076 0.000165
vt 0.449632 0.177120
vt 0.419169 0.118074
vt 0.447540 0.236156
vt 0.405794 0.104700
vt 0.415251 0.295204
vt 0.417076 0.117909
vt 0.449632 0.236156
vt 0.415036 0.117419
vt 0.451673 0.236158
vt 0.413097 0.116616
vt 0.453611 0.236160
vt 0.411307 0.115520
vt 0.455401 0.236164
vt 0.409712 0.114157
vt 0.456997 0.236166
vt 0.405794 0.295214
vt 0.408349 0.112561
vt 0.407390 0.295212
vt 0.407252 0.110771
vt 0.409180 0.295208
vt 0.406449 0.108833
vt 0.411118 0.295206
vt 0.405959 0.106792
vt 0.413159 0.295204
vt 0.298640 0.470610
vt 0.123708 0.470608
vt 0.366376 0.456282
vt 0.244816 0.000060
vt 0.091594 0.470608
vt 0.344664 0.456282
vt 0.255671 0.000000
vt 0.296040 0.470670
vt 0.322952 0.456282
vt 0.470930 0.354260
vt 0.427506 0.354260
vt 0.355520 0.456282
vt 0.269128 0.000000
vt 0.322952 0.470670
vt 0.449218 0.354260
vt 0.355520 0.434570
vt 0.344664 0.456282
vt 0.405794 0.354260
vt 0.231359 0.000060
vt 0.199246 0.470608
vt 0.333808 0.434570
vt 0.271728 0.470610
vt 0.016057 0.470608
vt 0.333808 0.434570
vt 0.242215 0.000000
vt 0.309496 0.470670
vt 0.355520 0.456282
vt 0.478709 0.118074
vt 0.322952 0.434570
vt 0.449218 0.354260
vt 0.282584 0.470670
vt 0.228759 0.000000
vt 0.355520 0.434570
vt 0.456997 0.118074
vt 0.344664 0.434570
vt 0.427506 0.354260
vt 0.228759 0.470670
vt 0.432707 0.462594
vt 0.201846 0.000000
vt 0.242215 0.470595
vt 0.432707 0.449137
vt 0.309496 0.000074
vt 0.282584 0.000074
vt 0.419251 0.462594
vt 0.228759 0.470595
vt 0.269128 0.000000
vt 0.405794 0.462594
vt 0.013456 0.000000
vt 0.446164 0.449137
vt 0.296040 0.000000
vt 0.121108 0.000000
vt 0.446164 0.462594
vt 0.215303 0.000000
vt 0.107651 0.000000
vt 0.174933 0.000000
vt 0.432707 0.449137
vt 0.282584 0.000000
vt 0.419251 0.449137
vt 0.255671 0.470595
vt 0.296040 0.000074
vt 0.459620 0.462594
vt 0.269128 0.470595
vt 0.322952 0.000074
vt 0.446163 0.462594
vt 0.309496 0.000000
vt 0.067282 0.000000
vt 0.446163 0.449137
vt 0.053826 0.000000
vt 0.040369 0.000000
vt 0.459620 0.449137
vt 0.255671 0.470670
vt 0.161477 0.000000
vt 0.432707 0.462594
vt 0.107651 0.000000
vt 0.419251 0.462594
vt 0.242215 0.470670
vt 0.094195 0.000000
vt 0.405794 0.449137
vt 0.161477 0.000000
vt 0.000000 0.000000
vt 0.419251 0.449137
vt 0.148021 0.000000
vt 0.215303 0.470670
s 0
f 115/269/1 125/290/1 82/200/1 70/174/1 21/44/1 35/73/1 12/27/1 32/65/1 17/36/1
f 92/220/2 94/224/2 95/226/2 96/228/2 97/230/2 98/232/2 99/235/2 100/237/2 101/239/2 102/241/2 93/222/2 15/33/2 27/53/2 18/39/2
f 29/59/2 20/43/2 114/266/2 116/270/2 117/272/2 118/274/2 119/276/2 120/278/2 121/281/2 122/283/2 123/285/2 124/287/2 115/268/2 17/37/2
f 147/335/3 149/339/3 150/341/3 151/343/3 152/345/3 153/347/3 154/350/3 155/352/3 156/354/3 157/356/3 148/337/3 103/243/3 105/247/3 106/249/3 107/251/3 108/253/3 109/255/3 110/258/3 111/260/3 112/262/3 113/264/3 104/245/3 81/197/3 83/201/3 84/203/3 85/205/3 86/207/3 87/209/3 88/212/3 89/214/3 90/216/3 91/218/3 82/199/3 125/289/3 127/293/3 128/295/3 129/297/3 130/299/3 131/301/3 132/304/3 133/306/3 134/308/3 135/310/3 126/291/3
f 19/41/2 136/312/2 138/316/2 139/318/2 140/320/2 141/322/2 142/324/2 143/327/2 144/329/2 145/331/2 146/333/2 137/314/2 16/35/2 26/50/2
f 93/223/4 103/244/4 148/338/4 136/313/4 19/40/4 30/62/4 10/23/4 36/75/4 15/32/4
f 39/81/2 22/46/2 12/28/2 35/74/2
f 53/117/2 48/103/2 13/29/2 37/77/2
f 50/106/2 49/105/2 11/26/2 25/49/2
f 52/112/2 50/106/2 25/49/2 31/64/2
f 30/63/2 19/41/2 26/50/2 33/67/2
f 165/388/5 163/379/5 169/403/5 168/400/5
f 47/102/2 51/110/2 24/48/2 9/22/2
f 137/315/6 147/336/6 126/292/6 114/267/6 20/42/6 40/84/6 11/25/6 49/104/6 16/34/6
f 36/76/2 10/24/2 23/47/2 38/79/2
f 71/176/7 81/198/7 104/246/7 92/221/7 18/38/7 47/101/7 9/21/7 41/86/7 14/30/7
f 41/87/2 43/90/2 28/58/2 14/31/2
f 46/98/2 42/88/2 22/46/2 39/81/2
f 34/70/2 29/59/2 17/37/2 32/66/2
f 53/115/8 51/109/8 67/159/8 69/168/8
f 44/92/2 40/85/2 20/43/2 29/59/2
f 42/88/2 45/95/2 34/70/2 22/46/2
f 22/46/2 34/70/2 32/66/2 12/28/2
f 10/24/2 30/63/2 33/67/2 23/47/2
f 48/103/2 52/112/2 31/64/2 13/29/2
f 28/56/9 43/89/9 56/125/9 57/126/9
f 15/33/2 36/76/2 38/79/2 27/53/2
f 51/110/2 53/117/2 37/77/2 24/48/2
f 28/58/2 39/81/2 35/74/2 21/45/2
f 24/48/2 37/77/2 46/98/2 43/90/2
f 13/29/2 31/64/2 45/95/2 42/88/2
f 25/49/2 11/26/2 40/85/2 44/92/2
f 31/64/2 25/49/2 44/92/2 45/95/2
f 37/77/2 13/29/2 42/88/2 46/98/2
f 9/22/2 24/48/2 43/90/2 41/87/2
f 38/78/10 53/116/10 69/169/10 54/118/10
f 23/47/2 33/67/2 52/112/2 48/103/2
f 18/39/2 27/53/2 51/110/2 47/102/2
f 46/99/10 39/82/10 58/128/10 65/150/10
f 26/50/2 16/35/2 49/105/2 50/106/2
f 38/79/2 23/47/2 48/103/2 53/117/2
f 60/134/11 63/143/11 159/362/11 2/4/11
f 62/138/12 158/359/12 8/18/12 54/120/12
f 62/138/12 61/136/12 1/2/12 158/359/12
f 67/161/13 55/121/13 7/17/13 163/380/13
f 39/83/14 28/57/14 57/127/14 58/130/14
f 43/91/15 46/100/15 65/151/15 56/123/15
f 33/68/16 26/51/16 61/136/16 62/138/16
f 50/107/8 52/113/8 68/162/8 66/156/8
f 29/60/14 34/71/14 63/143/14 60/134/14
f 44/93/17 29/61/17 60/135/17 59/132/17
f 26/52/17 50/108/17 66/157/17 61/137/17
f 34/72/18 45/96/18 64/144/18 63/141/18
f 51/111/9 27/54/9 55/121/9 67/161/9
f 27/55/16 38/80/16 54/120/16 55/122/16
f 45/97/15 44/94/15 59/131/15 64/145/15
f 52/114/18 33/69/18 62/139/18 68/163/18
f 70/174/19 82/200/19 91/219/19 72/178/19
f 72/178/20 91/219/20 90/217/20 73/180/20
f 73/180/21 90/217/21 89/215/21 74/182/21
f 74/182/22 89/215/22 88/213/22 75/184/22
f 75/184/23 88/213/23 87/210/23 76/186/23
f 76/187/24 87/211/24 86/208/24 77/189/24
f 77/189/25 86/208/25 85/206/25 78/191/25
f 78/191/26 85/206/26 84/204/26 79/193/26
f 79/193/27 84/204/27 83/202/27 80/195/27
f 80/195/28 83/202/28 81/198/28 71/176/28
f 103/244/29 93/223/29 102/242/29 105/248/29
f 105/248/30 102/242/30 101/240/30 106/250/30
f 106/250/31 101/240/31 100/238/31 107/252/31
f 107/252/32 100/238/32 99/236/32 108/254/32
f 108/254/33 99/236/33 98/233/33 109/256/33
f 109/257/34 98/234/34 97/231/34 110/259/34
f 110/259/35 97/231/35 96/229/35 111/261/35
f 111/261/36 96/229/36 95/227/36 112/263/36
f 112/263/37 95/227/37 94/225/37 113/265/37
f 113/265/38 94/225/38 92/221/38 104/246/38
f 147/336/39 137/315/39 146/334/39 149/340/39
f 149/340/40 146/334/40 145/332/40 150/342/40
f 150/342/41 145/332/41 144/330/41 151/344/41
f 151/344/42 144/330/42 143/328/42 152/346/42
f 152/346/43 143/328/43 142/325/43 153/348/43
f 153/349/44 142/326/44 141/323/44 154/351/44
f 154/351/45 141/323/45 140/321/45 155/353/45
f 155/353/46 140/321/46 139/319/46 156/355/46
f 156/355/47 139/319/47 138/317/47 157/357/47
f 157/357/48 138/317/48 136/313/48 148/338/48
f 125/290/49 115/269/49 124/288/49 127/294/49
f 127/294/50 124/288/50 123/286/50 128/296/50
f 128/296/51 123/286/51 122/284/51 129/298/51
f 129/298/52 122/284/52 121/282/52 130/300/52
f 130/300/53 121/282/53 120/279/53 131/302/53
f 131/303/54 120/280/54 119/277/54 132/305/54
f 132/305/55 119/277/55 118/275/55 133/307/55
f 133/307/56 118/275/56 117/273/56 134/309/56
f 134/309/57 117/273/57 116/271/57 135/311/57
f 135/311/58 116/271/58 114/267/58 126/292/58
f 14/31/2 28/58/2 21/45/2 70/175/2 72/179/2 73/181/2 74/183/2 75/185/2 76/188/2 77/190/2 78/192/2 79/194/2 80/196/2 71/177/2
f 3/6/59 2/3/59 178/429/59 172/412/59
f 162/376/5 164/382/5 167/397/5 166/394/5
f 5/11/60 6/14/60 177/426/60 176/425/60
f 68/164/3 62/140/3 54/119/3 69/170/3
f 55/122/12 54/120/12 8/18/12 7/16/12
f 57/126/13 56/125/13 6/14/13 5/11/13
f 58/130/11 57/127/11 5/12/11 4/9/11
f 61/137/61 66/157/61 162/377/61 1/1/61
f 59/132/61 60/135/61 2/3/61 3/6/61
f 173/415/2 172/413/2 178/430/2 179/432/2
f 177/427/2 174/418/2 175/421/2 176/424/2
f 180/435/2 181/438/2 168/401/2 169/404/2
f 170/406/2 171/409/2 166/395/2 167/398/2
f 159/361/62 160/364/62 173/416/62 179/433/62
f 6/13/63 161/370/63 174/419/63 177/428/63
f 164/383/62 158/358/62 170/407/62 167/399/62
f 2/4/64 159/362/64 179/434/64 178/431/64
f 7/16/65 8/18/65 181/439/65 180/436/65
f 1/1/59 162/377/59 166/396/59 171/410/59
f 163/380/60 7/17/60 180/437/60 169/405/60
f 158/359/65 1/2/65 171/411/65 170/408/65
f 160/365/63 3/5/63 172/414/63 173/417/63
f 8/19/66 165/389/66 168/402/66 181/440/66
f 161/371/66 4/8/66 175/422/66 174/420/66
f 4/9/64 5/12/64 176/425/64 175/423/64
f 164/384/2 165/390/2 8/20/2 158/360/2
f 69/171/67 165/391/67 164/385/67 68/165/67
f 162/377/61 66/157/61 59/132/61 3/6/61
f 64/146/3 59/133/3 66/158/3 68/166/3
f 164/386/2 162/378/2 3/7/2 160/366/2
f 164/387/68 160/367/68 64/147/68 68/167/68
f 65/152/69 64/148/69 160/368/69 161/372/69
f 63/142/3 64/149/3 65/153/3 58/129/3
f 159/362/11 63/143/11 58/130/11 4/9/11
f 4/10/2 161/373/2 160/369/2 159/363/2
f 56/124/3 65/154/3 69/172/3 67/160/3
f 67/161/13 163/380/13 6/14/13 56/125/13
f 163/381/2 165/392/2 161/374/2 6/15/2
f 165/393/70 69/173/70 65/155/70 161/375/70
